<svg xmlns="http://www.w3.org/2000/svg" width="83.517" height="77.551" viewBox="0 0 83.517 77.551">
  <g id="check2-circle" transform="translate(-4.5 -4.497)">
    <g id="Group_9968" data-name="Group 9968" transform="translate(4.5 4.497)">
      <path id="Path_7388" data-name="Path 7388" d="M10.466,43.276A32.808,32.808,0,0,1,59.678,14.858a2.983,2.983,0,1,0,2.983-5.166A38.773,38.773,0,1,0,82.047,43.276a2.983,2.983,0,1,0-5.965,0,32.808,32.808,0,0,1-65.616,0Z" transform="translate(-4.5 -4.497)" fill="#24a40a"/>
      <path id="Path_7389" data-name="Path 7389" d="M78.247,12.6a2.986,2.986,0,1,0-4.223-4.223L34.38,48.023,18.6,32.233a2.986,2.986,0,0,0-4.223,4.223l17.9,17.9a2.983,2.983,0,0,0,4.223,0Z" transform="translate(4.394 -1.531)" fill="#24a40a"/>
    </g>
  </g>
</svg>
