<svg id="qr-code_2_" data-name="qr-code (2)" xmlns="http://www.w3.org/2000/svg" width="19.426" height="19.426" viewBox="0 0 19.426 19.426">
  <g id="Group_235" data-name="Group 235">
    <g id="Group_234" data-name="Group 234">
      <path id="Path_57" data-name="Path 57" d="M6.071,0H0V6.071H6.071ZM4.856,4.856H1.214V1.214H4.856Z"/>
      <rect id="Rectangle_132" data-name="Rectangle 132" width="1.244" height="1.244" transform="translate(2.488 2.488)"/>
      <path id="Path_58" data-name="Path 58" d="M352,0V6.071h6.071V0Zm4.856,4.856h-3.642V1.214h3.642Z" transform="translate(-338.645)"/>
      <rect id="Rectangle_133" data-name="Rectangle 133" width="1.244" height="1.244" transform="translate(15.859 2.488)"/>
      <path id="Path_59" data-name="Path 59" d="M0,358.071H6.071V352H0Zm1.214-4.856H4.856v3.642H1.214Z" transform="translate(0 -338.645)"/>
      <rect id="Rectangle_134" data-name="Rectangle 134" width="1.244" height="1.244" transform="translate(2.488 15.859)"/>
      <rect id="Rectangle_135" data-name="Rectangle 135" width="2.488" height="1.244" transform="translate(9.64)"/>
      <path id="Path_60" data-name="Path 60" d="M194.428,35.642h1.214V34.428h1.214V33.214h-3.642V32H192v2.428h2.428Z" transform="translate(-184.715 -30.786)"/>
      <rect id="Rectangle_136" data-name="Rectangle 136" width="1.555" height="1.244" transform="translate(7.152 4.975)"/>
      <path id="Path_61" data-name="Path 61" d="M196.856,160h-1.214v1.214H192v1.214h4.856Z" transform="translate(-184.715 -153.929)"/>
      <path id="Path_62" data-name="Path 62" d="M1.214,195.642H2.428v-1.214H1.214V192H0v4.856H1.214Z" transform="translate(0 -184.715)"/>
      <rect id="Rectangle_137" data-name="Rectangle 137" width="1.244" height="1.555" transform="translate(2.488 7.152)"/>
      <path id="Path_63" data-name="Path 63" d="M99.642,196.856h2.428v-1.214h-1.214v-1.214H98.428V192H97.214v2.428H96v2.428h1.214v-1.214h2.428Z" transform="translate(-92.358 -184.715)"/>
      <rect id="Rectangle_138" data-name="Rectangle 138" width="1.244" height="2.488" transform="translate(10.884 9.64)"/>
      <path id="Path_64" data-name="Path 64" d="M195.642,352H192v1.214h2.428v3.642H192v1.214h3.642v-1.214h2.428v-1.214h-2.428Z" transform="translate(-184.715 -338.645)"/>
      <rect id="Rectangle_139" data-name="Rectangle 139" width="1.555" height="1.244" transform="translate(7.152 15.859)"/>
      <rect id="Rectangle_140" data-name="Rectangle 140" width="1.244" height="2.488" transform="translate(12.128 13.371)"/>
      <path id="Path_65" data-name="Path 65" d="M387.642,416H384v3.642h1.214v-2.428h2.428Z" transform="translate(-369.431 -400.217)"/>
      <rect id="Rectangle_141" data-name="Rectangle 141" width="2.177" height="0.933" transform="translate(17.103 18.347)"/>
      <rect id="Rectangle_142" data-name="Rectangle 142" width="0.933" height="1.244" transform="translate(18.347 13.371)"/>
      <path id="Path_66" data-name="Path 66" d="M353.214,291.642h1.214V288H352v1.214h1.214Z" transform="translate(-338.645 -277.073)"/>
      <path id="Path_67" data-name="Path 67" d="M355.642,193.214h-1.214V192h-1.214v1.214H352v1.214h4.856v-1.214h1.214V192h-2.428Z" transform="translate(-338.645 -184.715)"/>
      <rect id="Rectangle_143" data-name="Rectangle 143" width="2.177" height="1.244" transform="translate(17.103 10.884)"/>
    </g>
  </g>
</svg>
