<svg id="truck-transporation-delivery-logistic-fast" xmlns="http://www.w3.org/2000/svg" xmlns:xlink="http://www.w3.org/1999/xlink" width="16.311" height="13.103" viewBox="0 0 16.311 13.103">
  <defs>
    <linearGradient id="linear-gradient" x1="0.5" y1="10.806" x2="0.5" y2="-13.679" gradientUnits="objectBoundingBox">
      <stop offset="0" stop-color="#006df0"/>
      <stop offset="1" stop-color="#00e7f0"/>
    </linearGradient>
    <linearGradient id="linear-gradient-2" y1="1.935" y2="-6.227" xlink:href="#linear-gradient"/>
    <linearGradient id="linear-gradient-4" y1="16.306" y2="-8.179" xlink:href="#linear-gradient"/>
    <linearGradient id="linear-gradient-5" y1="2.373" y2="-0.356" xlink:href="#linear-gradient"/>
    <linearGradient id="linear-gradient-6" y1="5.658" y2="-1.337" xlink:href="#linear-gradient"/>
  </defs>
  <path id="Path_20799" data-name="Path 20799" d="M18.106,21.1a.824.824,0,0,0-.614-.276h-.805l-.4-1.815a.815.815,0,0,0-.8-.642H13.078l.388-4.07a.277.277,0,0,0-.071-.207.273.273,0,0,0-.2-.09H3.911a.273.273,0,0,0-.273.248l-.21,2.208H2.273a.273.273,0,0,0,0,.546h1.1l-.052.546H3.092a.273.273,0,0,0,0,.546h.18L2.6,25.116a.836.836,0,0,0,.21.628.827.827,0,0,0,.606.268H5.461a1.909,1.909,0,0,0,3.45,0h4.2a1.9,1.9,0,0,0,3.445,0h.521a.819.819,0,0,0,.813-.724l.418-3.549a.825.825,0,0,0-.2-.639Zm-3.849-2.187h1.228a.271.271,0,0,1,.265.216l.377,1.7H14.044ZM3.821,18.095H6.368a.273.273,0,0,0,0-.546h-2.5L3.925,17H6.914a.273.273,0,0,0,0-.546H3.976l.183-1.911h8.733l-.729,7.643H3.43ZM5.3,25.465H3.42a.278.278,0,0,1-.2-.09.267.267,0,0,1-.068-.21l.022-.246H5.3A1.717,1.717,0,0,0,5.3,25.465Zm1.889,1.092a1.365,1.365,0,1,1,1.365-1.365A1.365,1.365,0,0,1,7.187,26.557Zm0-3.276a1.914,1.914,0,0,0-1.725,1.092H3.223l.156-1.638h8.733l-.156,1.638H8.912a1.914,1.914,0,0,0-1.725-1.092Zm5.754,2.184H9.076a1.717,1.717,0,0,0,0-.546h3.865A1.717,1.717,0,0,0,12.941,25.465Zm1.889,1.092a1.365,1.365,0,1,1,1.365-1.365A1.365,1.365,0,0,1,14.83,26.557Zm2.517-1.335a.275.275,0,0,1-.273.243h-.355a1.717,1.717,0,0,0,0-.546h.663Zm.227-1.941h-.287a.273.273,0,0,1-.273-.273.259.259,0,0,1,.085-.194.253.253,0,0,1,.188-.079h.352Zm.128-1.092h-.415a.819.819,0,1,0,0,1.638h.224l-.066.546h-.893a1.9,1.9,0,0,0-3.445,0h-.6l.519-5.46h.682l-.2,1.851a.548.548,0,0,0,.543.606h3.448a.276.276,0,0,1,.273.3Z" transform="translate(-2 -14)" fill="#0a195c"/>
  <path id="Path_20800" data-name="Path 20800" d="M45.233,42.467H45.7a.233.233,0,1,0,0-.467h-.467a.233.233,0,1,0,0,.467Z" transform="translate(-33.14 -34.308)" fill="url(#linear-gradient)"/>
  <path id="Path_20801" data-name="Path 20801" d="M46.7,52a.7.7,0,1,0,.7.7A.7.7,0,0,0,46.7,52Zm0,.933a.233.233,0,1,1,.233-.233A.233.233,0,0,1,46.7,52.933Z" transform="translate(-33.794 -41.23)" fill="url(#linear-gradient-2)"/>
  <path id="Path_20802" data-name="Path 20802" d="M18.7,52a.7.7,0,1,0,.7.7A.7.7,0,0,0,18.7,52Zm0,.933a.233.233,0,1,1,.233-.233A.233.233,0,0,1,18.7,52.933Z" transform="translate(-13.561 -41.23)" fill="url(#linear-gradient-2)"/>
  <path id="Path_20803" data-name="Path 20803" d="M11.4,31H10.233a.233.233,0,0,0,0,.467H11.4a.233.233,0,0,0,0-.467Z" transform="translate(-8.133 -26.33)" fill="url(#linear-gradient-4)"/>
  <path id="Path_20804" data-name="Path 20804" d="M23.121,25.215a2.093,2.093,0,1,0-2.093-2.093A2.093,2.093,0,0,0,23.121,25.215Zm0-3.733a1.64,1.64,0,1,1-1.64,1.64A1.64,1.64,0,0,1,23.121,21.482Z" transform="translate(-15.51 -19.388)" fill="url(#linear-gradient-5)"/>
  <path id="Path_20805" data-name="Path 20805" d="M25.233,25.633h.933a.233.233,0,0,0,.217-.147l.467-1.167a.233.233,0,1,0-.434-.174l-.408,1.02h-.775a.233.233,0,1,0,0,.467Z" transform="translate(-18.58 -21.202)" fill="url(#linear-gradient-6)"/>
</svg>
