<svg id="calendar_4_" data-name="calendar (4)" xmlns="http://www.w3.org/2000/svg" width="27.963" height="27.963" viewBox="0 0 27.963 27.963">
  <g id="Group_8951" data-name="Group 8951">
    <g id="Group_8950" data-name="Group 8950">
      <circle id="Ellipse_580" data-name="Ellipse 580" cx="0.699" cy="0.699" r="0.699" transform="translate(20.44 10.896)" fill="#011f79"/>
      <path id="Path_11391" data-name="Path 11391" d="M23.594,2.185h-1.42V1.092a1.092,1.092,0,0,0-2.185,0V2.185h-4.97V1.092a1.092,1.092,0,1,0-2.185,0V2.185H7.919V1.092a1.092,1.092,0,0,0-2.185,0V2.185H4.369A4.374,4.374,0,0,0,0,6.554v17.04a4.374,4.374,0,0,0,4.369,4.369h8.356a1.092,1.092,0,0,0,0-2.185H4.369a2.187,2.187,0,0,1-2.185-2.185V6.554A2.187,2.187,0,0,1,4.369,4.369H5.735V5.462a1.092,1.092,0,0,0,2.185,0V4.369h4.915V5.462a1.092,1.092,0,1,0,2.185,0V4.369h4.97V5.462a1.092,1.092,0,0,0,2.185,0V4.369h1.42a2.187,2.187,0,0,1,2.185,2.185V12.78a1.092,1.092,0,1,0,2.185,0V6.554A4.374,4.374,0,0,0,23.594,2.185Z" fill="#011f79"/>
      <path id="Path_11392" data-name="Path 11392" d="M275.849,270a5.849,5.849,0,1,0,5.849,5.849A5.855,5.855,0,0,0,275.849,270Zm0,9.764a3.915,3.915,0,1,1,3.915-3.915A3.92,3.92,0,0,1,275.849,279.764Z" transform="translate(-253.735 -253.735)" fill="#011f79"/>
      <path id="Path_11393" data-name="Path 11393" d="M373.368,331.982h-.435v-1.015a.967.967,0,1,0-1.933,0v1.982a.967.967,0,0,0,.967.967h1.4a.967.967,0,1,0,0-1.934Z" transform="translate(-349.853 -310.43)" fill="#011f79"/>
      <circle id="Ellipse_581" data-name="Ellipse 581" cx="0.699" cy="0.699" r="0.699" transform="translate(15.668 10.896)" fill="#011f79"/>
      <circle id="Ellipse_582" data-name="Ellipse 582" cx="0.699" cy="0.699" r="0.699" transform="translate(10.896 15.668)" fill="#011f79"/>
      <circle id="Ellipse_583" data-name="Ellipse 583" cx="0.699" cy="0.699" r="0.699" transform="translate(6.125 10.896)" fill="#011f79"/>
      <circle id="Ellipse_584" data-name="Ellipse 584" cx="0.699" cy="0.699" r="0.699" transform="translate(6.125 15.668)" fill="#011f79"/>
      <circle id="Ellipse_585" data-name="Ellipse 585" cx="0.699" cy="0.699" r="0.699" transform="translate(6.125 20.44)" fill="#011f79"/>
      <circle id="Ellipse_586" data-name="Ellipse 586" cx="0.699" cy="0.699" r="0.699" transform="translate(10.896 20.44)" fill="#011f79"/>
      <circle id="Ellipse_587" data-name="Ellipse 587" cx="0.699" cy="0.699" r="0.699" transform="translate(10.896 10.896)" fill="#011f79"/>
    </g>
  </g>
</svg>
