<svg id="shop-online-shopping-store-market" xmlns="http://www.w3.org/2000/svg" xmlns:xlink="http://www.w3.org/1999/xlink" width="14" height="14" viewBox="0 0 14 14">
  <defs>
    <linearGradient id="linear-gradient" x1="0.5" y1="2.112" x2="0.5" y2="-1.784" gradientUnits="objectBoundingBox">
      <stop offset="0" stop-color="#006df0"/>
      <stop offset="1" stop-color="#00e7f0"/>
    </linearGradient>
  </defs>
  <path id="Path_20806" data-name="Path 20806" d="M15.767,14.6h-.933V8.043A1.171,1.171,0,0,0,15.767,6.9V6.433a.219.219,0,0,0-.016-.086l-.917-2.291V2.7a.7.7,0,0,0-.7-.7H3.867a.7.7,0,0,0-.7.7V4.056L2.25,6.347a.219.219,0,0,0-.016.086V6.9a1.171,1.171,0,0,0,.933,1.143V14.6H2.233A.233.233,0,0,0,2,14.833v.933A.233.233,0,0,0,2.233,16H15.767A.233.233,0,0,0,16,15.767v-.933A.233.233,0,0,0,15.767,14.6ZM15.3,6.9a.7.7,0,0,1-1.4,0V6.667h1.4ZM8.067,9H4.333a.233.233,0,0,0-.233.233V14.6H3.633V8.043a1.161,1.161,0,0,0,.7-.45,1.156,1.156,0,0,0,1.867,0,1.156,1.156,0,0,0,1.867,0,1.156,1.156,0,0,0,1.867,0,1.156,1.156,0,0,0,1.867,0,1.156,1.156,0,0,0,1.867,0,1.161,1.161,0,0,0,.7.45V14.6H8.3V9.233A.233.233,0,0,0,8.067,9Zm-.233.467V14.6H4.567V9.467ZM6.513,6.2l.56-1.867h.968L7.854,6.2Zm1.321.467V6.9a.7.7,0,0,1-1.4,0V6.667ZM6.027,6.2H4.679l.306-.763.441-1.1H6.587Zm-.061.467V6.9a.7.7,0,0,1-1.4,0V6.667Zm3.733,0V6.9a.7.7,0,1,1-1.4,0V6.667ZM8.326,6.2l.187-1.867h.975L9.674,6.2Zm1.82,0L9.959,4.333h1.183L11.515,6.2Zm1.421.467V6.9a.7.7,0,1,1-1.4,0V6.667Zm.425-.467-.373-1.867h1.176l.56,1.867Zm1.442.467V6.9a.7.7,0,1,1-1.4,0V6.667ZM15.188,6.2H13.839l-.56-1.867h1.162ZM3.633,2.7a.233.233,0,0,1,.233-.233H14.133a.233.233,0,0,1,.233.233V3.867H3.633ZM3.559,4.333H4.921L4.175,6.2H2.812ZM2.7,6.9V6.667H4.1V6.9a.7.7,0,0,1-1.4,0Zm12.833,8.633H2.467v-.467H15.533Z" transform="translate(-2 -2)" fill="#0a195c"/>
  <path id="Path_20807" data-name="Path 20807" d="M31.233,35.733H35.9a.233.233,0,0,0,.233-.233V32.233A.233.233,0,0,0,35.9,32H31.233a.233.233,0,0,0-.233.233V35.5A.233.233,0,0,0,31.233,35.733Zm.233-3.267h4.2v2.8h-4.2Z" transform="translate(-24.233 -25)" fill="url(#linear-gradient)"/>
</svg>
