<svg xmlns="http://www.w3.org/2000/svg" width="41.836" height="53.151" viewBox="0 0 41.836 53.151">
  <g id="Layer_x0020_1" transform="translate(-181.438 -0.034)">
    <g id="Group_11688" data-name="Group 11688" transform="translate(185.472 0.034)">
      <path id="Path_20695" data-name="Path 20695" d="M1012.771,462.04a.53.53,0,0,1-.218-.031,7.761,7.761,0,0,1-2.553-12.86.577.577,0,0,1,.872.031l1.65-.934c-.249-.467.187-1.246,2.833-1.246a7.769,7.769,0,0,1,2.834,15.008.665.665,0,0,1-.778-.249l-4.141.031A.566.566,0,0,1,1012.771,462.04Z" transform="translate(-985.898 -433.082)" fill="#ffb800" fill-rule="evenodd"/>
      <path id="Path_20696" data-name="Path 20696" d="M689.03,13.267a.617.617,0,0,1-.592-.778l2.273-9.217A4.248,4.248,0,0,1,698.963,5.3l-.56,2.211a.561.561,0,0,1-.56.467l-.56,1.619-7.629,3.114A.614.614,0,0,1,689.03,13.267Z" transform="translate(-676.668 -0.034)" fill="#ffb800" fill-rule="evenodd"/>
      <path id="Path_20697" data-name="Path 20697" d="M314.833,324.807a4.573,4.573,0,0,1-3.238-2.055,4.255,4.255,0,0,1,4.671-6.321l7.255,2.024c.778.187.467,1.4-.4,1.183l-7.66,4.577A.64.64,0,0,1,314.833,324.807Z" transform="translate(-310.971 -306.436)" fill="#ffb800" fill-rule="evenodd"/>
    </g>
    <path id="Path_20698" data-name="Path 20698" d="M394.854,915.44h-9.186V890H398.56a.625.625,0,0,1,.623.623v20.489A4.339,4.339,0,0,1,394.854,915.44Zm-18.34,0h-9.186A4.359,4.359,0,0,1,363,911.112v-18.87a.645.645,0,0,1,1.028-.5l1.681-1A.6.6,0,0,1,366.3,890h10.213Z" transform="translate(-175.908 -862.254)" fill="#e93565" fill-rule="evenodd"/>
    <path id="Path_20699" data-name="Path 20699" d="M1158.112,602.431a.63.63,0,0,1-.436-1.059l4.982-4.982a.628.628,0,0,1,.872.9l-4.951,4.951A.634.634,0,0,1,1158.112,602.431Z" transform="translate(-945.674 -577.612)" fill="#fefefe" fill-rule="evenodd"/>
    <path id="Path_20700" data-name="Path 20700" d="M1273.235,713.048a2.024,2.024,0,0,1,0-4.048A2.024,2.024,0,0,1,1273.235,713.048Zm0-1.246a.779.779,0,0,0,0-1.557A.779.779,0,0,0,1273.235,711.8Z" transform="translate(-1055.877 -686.89)" fill="#fefefe" fill-rule="evenodd"/>
    <path id="Path_20701" data-name="Path 20701" d="M1117.235,557.048a2.024,2.024,0,0,1,0-4.048A2.024,2.024,0,0,1,1117.235,557.048Zm0-1.245a.779.779,0,0,0,0-1.557A.779.779,0,0,0,1117.235,555.8Z" transform="translate(-904.735 -535.748)" fill="#fefefe" fill-rule="evenodd"/>
    <path id="Path_20702" data-name="Path 20702" d="M185.659,119.946a.578.578,0,0,1-.529-.311l-3.083-5.075a4.317,4.317,0,0,1,1.495-5.916l10.338-6.259,5.418,9.435-13.327,8.034A.526.526,0,0,1,185.659,119.946Zm16.067-22.295,10.089-6.072a4.307,4.307,0,0,1,5.916,1.463l3.083,5.075a.648.648,0,0,1-.218.841l-13.452,8.127Z" transform="translate(0 -88.09)" fill="#e93565" fill-rule="evenodd"/>
    <path id="Path_20703" data-name="Path 20703" d="M581,310.733,588.847,306l5.418,9.435-7.847,4.733Z" transform="translate(-387.12 -296.439)" fill="#fc0" fill-rule="evenodd"/>
    <path id="Path_20704" data-name="Path 20704" d="M806.155,915.44H797V890h9.155Z" transform="translate(-596.394 -862.254)" fill="#fc0" fill-rule="evenodd"/>
    <path id="Path_20705" data-name="Path 20705" d="M370.878,1440.563h-3.55a4.359,4.359,0,0,1-4.328-4.328v-3.519c.125-.374,1.059-.716,2.4-.716a6.087,6.087,0,0,1,5.729,8.127A2.334,2.334,0,0,1,370.878,1440.563Z" transform="translate(-175.908 -1387.377)" fill="#fa5f7f" fill-rule="evenodd"/>
    <path id="Path_20706" data-name="Path 20706" d="M1257.141,1439.5h-3.519a4.045,4.045,0,0,1-.623-2.46c0-4.982,5.418-7.255,8.469-5.6v3.737A4.339,4.339,0,0,1,1257.141,1439.5Z" transform="translate(-1038.195 -1386.31)" fill="#fa5f7f" fill-rule="evenodd"/>
  </g>
</svg>
