<svg xmlns="http://www.w3.org/2000/svg" width="24" height="24" viewBox="0 0 24 24">
  <g id="shopping-cart" transform="translate(30.245 0)">
    <rect id="Rectangle_17328" data-name="Rectangle 17328" width="24" height="24" transform="translate(-30.245 0)" fill="none"/>
    <g id="Group_10654" data-name="Group 10654" transform="translate(-28.245 3)">
      <path id="Path_8562" data-name="Path 8562" d="M6.706,12.12H17.654a.6.6,0,0,0,.582-.44L20.661,3.2a.605.605,0,0,0-.582-.772H5.307L4.874.475A.606.606,0,0,0,4.282,0H.606a.606.606,0,0,0,0,1.212H3.8l2.188,9.847a1.817,1.817,0,0,0,.722,3.485H17.654a.606.606,0,0,0,0-1.212H6.706a.606.606,0,0,1,0-1.212Zm0,0" fill="#fff"/>
      <path id="Path_8563" data-name="Path 8563" d="M151,361.822A1.818,1.818,0,1,0,152.818,360,1.82,1.82,0,0,0,151,361.822Zm0,0" transform="translate(-144.9 -345.46)" fill="#fff"/>
      <path id="Path_8564" data-name="Path 8564" d="M362,361.822A1.818,1.818,0,1,0,363.822,360,1.82,1.82,0,0,0,362,361.822Zm0,0" transform="translate(-347.38 -345.46)" fill="#fff"/>
    </g>
  </g>
</svg>
